<svg width="24" height="24" viewBox="0 0 24 24" fill="none" xmlns="http://www.w3.org/2000/svg">
<path d="M0 12C0 5.37258 5.37258 0 12 0C18.6274 0 24 5.37258 24 12C24 18.6274 18.6274 24 12 24C5.37258 24 0 18.6274 0 12Z" fill="white"/>
<mask id="mask0" mask-type="alpha" maskUnits="userSpaceOnUse" x="0" y="0" width="24" height="24">
<path fill-rule="evenodd" clip-rule="evenodd" d="M0 12C0 5.37258 5.37258 0 12 0C18.6274 0 24 5.37258 24 12C24 18.6274 18.6274 24 12 24C5.37258 24 0 18.6274 0 12Z" fill="white"/>
</mask>
<g mask="url(#mask0)">
<path fill-rule="evenodd" clip-rule="evenodd" d="M12.0005 5.6001C10.2623 5.6001 10.0442 5.6077 9.36149 5.63876C8.68015 5.66997 8.21508 5.77783 7.80814 5.9361C7.38721 6.09957 7.03014 6.31824 6.6744 6.67411C6.31839 7.02985 6.09973 7.38692 5.93572 7.80772C5.77706 8.21479 5.66905 8.68 5.63839 9.36107C5.60785 10.0437 5.59985 10.262 5.59985 12.0002C5.59985 13.7383 5.60759 13.9558 5.63852 14.6385C5.66985 15.3198 5.77772 15.7849 5.93586 16.1918C6.09946 16.6127 6.31813 16.9698 6.674 17.3256C7.0296 17.6816 7.38667 17.9008 7.80734 18.0642C8.21455 18.2225 8.67975 18.3304 9.36096 18.3616C10.0436 18.3926 10.2616 18.4002 11.9997 18.4002C13.7379 18.4002 13.9554 18.3926 14.6381 18.3616C15.3194 18.3304 15.785 18.2225 16.1922 18.0642C16.613 17.9008 16.9696 17.6816 17.3252 17.3256C17.6812 16.9698 17.8998 16.6127 18.0639 16.1919C18.2212 15.7849 18.3292 15.3197 18.3612 14.6386C18.3919 13.9559 18.3999 13.7383 18.3999 12.0002C18.3999 10.262 18.3919 10.0439 18.3612 9.3612C18.3292 8.67986 18.2212 8.21479 18.0639 7.80785C17.8998 7.38692 17.6812 7.02985 17.3252 6.67411C16.9692 6.31811 16.6132 6.09944 16.1918 5.9361C15.7838 5.77783 15.3185 5.66997 14.6371 5.63876C13.9545 5.6077 13.7371 5.6001 11.9985 5.6001H12.0005ZM11.7871 6.75339H11.7872L12.0005 6.75345C13.7093 6.75345 13.9119 6.75959 14.5867 6.79026C15.2107 6.81879 15.5494 6.92306 15.775 7.01066C16.0736 7.12666 16.2866 7.26533 16.5104 7.48933C16.7344 7.71333 16.8731 7.92667 16.9894 8.22534C17.077 8.45067 17.1814 8.78934 17.2098 9.41335C17.2404 10.088 17.2471 10.2907 17.2471 11.9987C17.2471 13.7067 17.2404 13.9094 17.2098 14.5841C17.1812 15.2081 17.077 15.5467 16.9894 15.7721C16.8734 16.0708 16.7344 16.2834 16.5104 16.5073C16.2864 16.7313 16.0738 16.87 15.775 16.986C15.5496 17.074 15.2107 17.178 14.5867 17.2065C13.912 17.2372 13.7093 17.2438 12.0005 17.2438C10.2916 17.2438 10.089 17.2372 9.41436 17.2065C8.79036 17.1777 8.45169 17.0734 8.22595 16.9858C7.92728 16.8698 7.71395 16.7312 7.48994 16.5072C7.26594 16.2832 7.12727 16.0704 7.011 15.7715C6.9234 15.5462 6.819 15.2075 6.7906 14.5835C6.75994 13.9089 6.7538 13.7062 6.7538 11.9971C6.7538 10.288 6.75994 10.0864 6.7906 9.41175C6.81914 8.78774 6.9234 8.44907 7.011 8.22347C7.12701 7.9248 7.26594 7.71146 7.48994 7.48746C7.71395 7.26346 7.92728 7.12479 8.22595 7.00852C8.45155 6.92052 8.79036 6.81652 9.41436 6.78786C10.0048 6.76119 10.2336 6.75319 11.4264 6.75185V6.75345C11.5378 6.75328 11.6577 6.75333 11.7871 6.75339ZM14.6488 8.58392C14.6488 8.15978 14.9928 7.81618 15.4168 7.81618V7.81591C15.8408 7.81591 16.1848 8.15992 16.1848 8.58392C16.1848 9.00792 15.8408 9.35193 15.4168 9.35193C14.9928 9.35193 14.6488 9.00792 14.6488 8.58392ZM12.0002 8.71343C10.1852 8.7135 8.71364 10.1851 8.71364 12.0001C8.71364 13.8152 10.1853 15.2862 12.0003 15.2862C13.8154 15.2862 15.2865 13.8152 15.2865 12.0001C15.2865 10.185 13.8153 8.71343 12.0002 8.71343ZM14.1337 12.0002C14.1337 10.8219 13.1785 9.8668 12.0004 9.8668C10.8221 9.8668 9.86701 10.8219 9.86701 12.0002C9.86701 13.1783 10.8221 14.1335 12.0004 14.1335C13.1785 14.1335 14.1337 13.1783 14.1337 12.0002Z" fill="black"/>
</g>
</svg>
