<svg width="189" height="35" viewBox="0 0 189 35" fill="none" xmlns="http://www.w3.org/2000/svg">
<path d="M22.3369 0.728189L22.3324 0.725225C20.2966 -0.615123 17.5597 -0.0513185 16.2193 1.98452L0.730326 25.5105C-0.610023 27.5464 -0.0462165 30.2833 1.98962 31.6237L1.99412 31.6266C4.02996 32.967 6.76689 32.4032 8.10724 30.3673L23.5962 6.84131C24.9366 4.80548 24.3728 2.06854 22.3369 0.728189Z" fill="#277AEF"/>
<path d="M56.7926 12.7444C56.7984 13.8537 56.4173 14.9304 55.7148 15.789L43.0459 30.98C42.7047 31.4088 42.2712 31.7551 41.7776 31.9931C41.2841 32.2312 40.7432 32.3548 40.1952 32.3548C39.6472 32.3548 39.1063 32.2312 38.6128 31.9931C38.1192 31.7551 37.6857 31.4088 37.3445 30.98L24.6702 15.789C23.9509 14.9009 23.5684 13.7873 23.59 12.6446C23.6117 11.502 24.0363 10.4037 24.7887 9.54347C25.1333 9.14665 25.5616 8.83124 26.0427 8.61999C26.5239 8.40874 27.046 8.30692 27.5713 8.32187C28.0966 8.33682 28.612 8.46817 29.0804 8.70644C29.5488 8.94472 29.9585 9.28397 30.2799 9.69974L40.1952 21.555L50.1159 9.69974C50.438 9.28669 50.8473 8.94987 51.3146 8.71334C51.7819 8.47682 52.2957 8.34644 52.8193 8.33151C53.3429 8.31658 53.8633 8.41747 54.3433 8.62698C54.8234 8.83649 55.2512 9.14944 55.5963 9.54347C56.3799 10.4242 56.8065 11.5656 56.7926 12.7444Z" fill="#00AFFF"/>
<path d="M21.6359 28.0431C23.7668 28.0431 25.4942 26.3157 25.4942 24.1848C25.4942 22.0539 23.7668 20.3264 21.6359 20.3264C19.505 20.3264 17.7775 22.0539 17.7775 24.1848C17.7775 26.3157 19.505 28.0431 21.6359 28.0431Z" fill="#277AEF"/>
<path d="M124.169 12.221V12.471V27.0569V27.3069H123.919H120.159H119.909V27.0569V26.3985C118.757 27.2341 117.463 27.6077 116.099 27.6077C113.863 27.6077 111.748 26.6148 110.407 25.055L124.169 12.221ZM124.169 12.221H123.919H120.159H119.909V12.471V13.1428M124.169 12.221L119.909 13.1428M119.909 13.1428C118.787 12.363 117.409 11.9203 115.889 11.9203C111.769 11.9203 108.481 15.3532 108.481 19.779C108.481 21.8243 109.225 23.6864 110.406 25.0546L119.909 13.1428ZM75.5014 27.3069H75.6666L75.7314 27.1549L77.6515 22.6454H85.7718L87.6919 27.1549L87.7567 27.3069H87.9219H92.1624H92.5415L92.3921 26.9584L83.3699 5.90664L83.305 5.75512H83.1402H80.2831H80.1183L80.0533 5.90664L71.0311 26.9584L70.8818 27.3069H71.2609H75.5014ZM95.9969 12.3686L95.9306 12.221H95.7689H91.7089H91.3188L91.4818 12.5755L98.1883 27.1614L98.2552 27.3069H98.4154H101.122H101.282L101.349 27.1614L108.056 12.5755L108.219 12.221H107.829H103.769H103.607L103.541 12.3686L99.7687 20.763L95.9969 12.3686ZM132.596 5.70438V5.45438H132.346H128.437H128.187V5.70438V27.0569V27.3069H128.437H132.346H132.596V27.0569V5.70438ZM151.1 12.471V12.221H150.85H147.091H146.841V12.471V13.1428C145.718 12.363 144.341 11.9203 142.82 11.9203C138.7 11.9203 135.413 15.3532 135.413 19.779C135.413 21.8245 136.156 23.6868 137.338 25.055C138.68 26.6148 140.794 27.6077 143.031 27.6077C144.394 27.6077 145.689 27.2341 146.841 26.3985V27.0569V27.3069H147.091H150.85H151.1V27.0569V12.471ZM169.353 27.3069H169.603V27.0569V5.70438V5.45438H169.353H165.443H165.193V5.70438V13.0323C164.085 12.2891 162.785 11.9203 161.323 11.9203C157.203 11.9203 153.915 15.3532 153.915 19.779C153.915 21.8245 154.659 23.6868 155.841 25.055C157.182 26.6148 159.297 27.6077 161.533 27.6077C162.897 27.6077 164.191 27.2341 165.343 26.3985V27.0569V27.3069H165.593H169.353ZM79.3996 18.5366L81.6966 13.1942L83.9936 18.5366H79.3996ZM119.759 21.8647C119.048 22.8456 117.853 23.4988 116.49 23.4988C114.439 23.4988 112.891 21.933 112.891 19.779C112.891 17.7831 114.28 16.0292 116.4 16.0292C117.79 16.0292 118.989 16.6813 119.759 17.6682V21.8647ZM146.691 21.8647C145.979 22.8456 144.784 23.4988 143.422 23.4988C141.371 23.4988 139.822 21.933 139.822 19.779C139.822 17.7831 141.211 16.0292 143.332 16.0292C144.722 16.0292 145.921 16.6813 146.691 17.6682V21.8647ZM165.193 21.8647C164.482 22.8456 163.287 23.4988 161.924 23.4988C159.873 23.4988 158.325 21.933 158.325 19.779C158.325 17.7831 159.714 16.0292 161.834 16.0292C163.224 16.0292 164.423 16.6813 165.193 17.6682V21.8647ZM172.418 19.779C172.418 24.1306 175.871 27.6077 180.427 27.6077C184.983 27.6077 188.436 24.1306 188.436 19.779C188.436 15.4287 184.984 11.9203 180.427 11.9203C175.87 11.9203 172.418 15.4287 172.418 19.779ZM176.827 19.779C176.827 17.705 178.296 16.0292 180.427 16.0292C182.558 16.0292 184.026 17.705 184.026 19.779C184.026 21.8505 182.561 23.4988 180.427 23.4988C178.293 23.4988 176.827 21.8505 176.827 19.779Z" fill="#092B4C" stroke="#092B4C" stroke-width="0.5"/>
</svg>
