<svg width="51" height="31" viewBox="0 0 51 31" fill="none" xmlns="http://www.w3.org/2000/svg">
<path d="M20.6002 2.08275L20.5963 2.08021C18.8513 0.931343 16.5054 1.4146 15.3565 3.15961L2.08021 23.3248C0.931338 25.0698 1.4146 27.4157 3.1596 28.5646L3.16346 28.5671C4.90846 29.716 7.25441 29.2327 8.40328 27.4877L21.6796 7.32258C22.8284 5.57757 22.3452 3.23162 20.6002 2.08275Z" fill="#277AEF"/>
<path d="M50.1336 12.3823C50.1386 13.3332 49.8119 14.256 49.2098 14.992L38.3507 28.0128C38.0583 28.3803 37.6867 28.6772 37.2636 28.8812C36.8406 29.0852 36.3769 29.1912 35.9073 29.1912C35.4376 29.1912 34.9739 29.0852 34.5509 28.8812C34.1278 28.6772 33.7563 28.3803 33.4638 28.0128L22.6001 14.992C21.9836 14.2307 21.6557 13.2762 21.6743 12.2968C21.6929 11.3174 22.0567 10.376 22.7017 9.63865C22.997 9.29852 23.3641 9.02817 23.7766 8.8471C24.189 8.66603 24.6365 8.57875 25.0868 8.59156C25.537 8.60438 25.9788 8.71696 26.3803 8.9212C26.7818 9.12543 27.1329 9.41622 27.4084 9.7726L35.9073 19.9343L44.4107 9.7726C44.6868 9.41855 45.0376 9.12984 45.4382 8.92711C45.8388 8.72438 46.2792 8.61262 46.7279 8.59982C47.1767 8.58702 47.6227 8.67351 48.0342 8.85308C48.4457 9.03266 48.8124 9.30091 49.1082 9.63865C49.7798 10.3935 50.1455 11.3719 50.1336 12.3823Z" fill="#00AFFF"/>
<path d="M19.9992 25.4957C21.8257 25.4957 23.3064 24.015 23.3064 22.1885C23.3064 20.362 21.8257 18.8813 19.9992 18.8813C18.1727 18.8813 16.6921 20.362 16.6921 22.1885C16.6921 24.015 18.1727 25.4957 19.9992 25.4957Z" fill="#277AEF"/>
</svg>
